<?xml version="1.0" encoding="UTF-8" standalone="no"?>
<!DOCTYPE svg PUBLIC "-//W3C//DTD SVG 1.1//EN" "http://www.w3.org/Graphics/SVG/1.1/DTD/svg11.dtd">
<svg width="100%" height="100%" viewBox="0 0 510 510" version="1.1" xmlns="http://www.w3.org/2000/svg" xmlns:xlink="http://www.w3.org/1999/xlink" xml:space="preserve" xmlns:serif="http://www.serif.com/" style="fill-rule:evenodd;clip-rule:evenodd;stroke-linejoin:round;stroke-miterlimit:2;">
    <g transform="matrix(1,0,0,1,-3265.01,-3386)">
        <path d="M3569.75,3390.9C3536.91,3384.37 3503.1,3384.37 3470.26,3390.9L3462.28,3462.47C3452.76,3465.55 3443.49,3469.38 3434.58,3473.94L3378.34,3428.97C3350.49,3447.58 3326.59,3471.49 3307.98,3499.33L3352.95,3555.57C3348.39,3564.49 3344.55,3573.75 3341.47,3583.28L3269.91,3591.25C3263.37,3624.1 3263.37,3657.9 3269.91,3690.75L3341.47,3698.72C3344.55,3708.25 3348.39,3717.51 3352.95,3726.43L3307.98,3782.67C3326.59,3810.51 3350.49,3834.42 3378.34,3853.03L3434.58,3808.06C3443.49,3812.62 3452.76,3816.45 3462.28,3819.53L3470.26,3891.1C3503.1,3897.63 3536.91,3897.63 3569.75,3891.1L3577.73,3819.53C3587.26,3816.45 3596.52,3812.62 3605.43,3808.06L3661.68,3853.03C3689.52,3834.42 3713.43,3810.51 3732.03,3782.67L3687.07,3726.43C3691.62,3717.51 3695.46,3708.25 3698.54,3698.72L3770.11,3690.75C3776.64,3657.9 3776.64,3624.1 3770.11,3591.25L3698.54,3583.28C3695.46,3573.75 3691.62,3564.49 3687.07,3555.57L3732.03,3499.33C3713.43,3471.49 3689.52,3447.58 3661.68,3428.97L3605.43,3473.94C3596.52,3469.38 3587.26,3465.55 3577.73,3462.47L3569.75,3390.9ZM3520.01,3525.86C3583.55,3525.86 3635.15,3577.45 3635.15,3641C3635.15,3704.55 3583.55,3756.14 3520.01,3756.14C3456.46,3756.14 3404.86,3704.55 3404.86,3641C3404.86,3577.45 3456.46,3525.86 3520.01,3525.86Z" style="fill:white;"/>
    </g>
</svg>
